# xmcd
#
# Track frame offsets:
# 150
# 11980
# 25275
# 37490
# 52650
# 67427
# 79725
# 93375
# 105210
# 117900
# 130800
# 145500
#
# Disc length: 2101 seconds
#
# Revision: 1
# Processed by: cddbd v1.5.1PL2 Copyright (c) Steve Scherf et al.
# Submitted via: CedeCatalogueitor 2.6.0.6 http://personales.ya.com/cdcatalogueitor
#
DISCID=a108330c
DTITLE=The Platters - Only You
DYEAR=1995
DGENRE=
TTITLE0=Only You
TTITLE1=My Prayer-Rogar
TTITLE2=Remember When
TTITLE3=The Great Pretender-El Gran Simulador
TTITLE4=Harbour Lights
TTITLE5=You´ve Got The Magic Touch
TTITLE6=I´m Sorry
TTITLE7=Heaven On Earth
TTITLE8=Pledding My Love
TTITLE9=If I Had You
TTITLE10=Loving You
TTITLE11=You´ll Never Know
EXTD=
EXTT0=
EXTT1=
EXTT2=
EXTT3=
EXTT4=
EXTT5=
EXTT6=
EXTT7=
EXTT8=
EXTT9=
EXTT10=
EXTT11=
PLAYORDER=
